<mxfile modified="2021-12-22T05:13:38.974Z" host="app.diagrams.net" agent="5.0 (Windows NT 10.0; Win64; x64) AppleWebKit/537.36 (KHTML, like Gecko) Chrome/96.0.4664.110 Safari/537.36" etag="B7FZ3XrrGTTdB4dxPkOp" version="15.9.6" type="github">
  <diagram id="Ht1M8jgEwFfnCIfOTk4-" name="Page-1">
    <mxGraphModel dx="1422" dy="762" grid="1" gridSize="10" guides="1" tooltips="1" connect="1" arrows="1" fold="1" page="1" pageScale="1" pageWidth="850" pageHeight="850" math="0" shadow="0">
      <root>
        <mxCell id="0" />
        <mxCell id="1" parent="0" />
        <mxCell id="-QjtrjUzRDEMRZ5MF8oH-46" value="" style="rounded=0;whiteSpace=wrap;html=1;fillColor=#EAEDED;fontSize=22;fontColor=#FFFFFF;strokeColor=none;labelBackgroundColor=none;" parent="1" vertex="1">
          <mxGeometry x="29.5" y="666" width="780.5" height="165" as="geometry" />
        </mxCell>
        <mxCell id="jZVaUwOg5UY3L9NAnvdq-71" value="AWS Cloud" style="points=[[0,0],[0.25,0],[0.5,0],[0.75,0],[1,0],[1,0.25],[1,0.5],[1,0.75],[1,1],[0.75,1],[0.5,1],[0.25,1],[0,1],[0,0.75],[0,0.5],[0,0.25]];outlineConnect=0;gradientColor=none;html=1;whiteSpace=wrap;fontSize=12;fontStyle=0;shape=mxgraph.aws4.group;grIcon=mxgraph.aws4.group_aws_cloud_alt;strokeColor=#232F3E;fillColor=none;verticalAlign=top;align=left;spacingLeft=30;fontColor=#232F3E;dashed=0;labelBackgroundColor=none;container=1;pointerEvents=0;collapsible=0;recursiveResize=0;" parent="1" vertex="1">
          <mxGeometry x="183" y="113" width="627" height="527" as="geometry" />
        </mxCell>
        <mxCell id="QSw6mBPrp35lsUMGg7bP-10" value="" style="fillColor=#FFFFFF;strokeColor=#82b366;verticalAlign=top;fontStyle=0;" parent="jZVaUwOg5UY3L9NAnvdq-71" vertex="1">
          <mxGeometry x="218" y="351" width="233" height="150" as="geometry" />
        </mxCell>
        <mxCell id="jZVaUwOg5UY3L9NAnvdq-73" value="Amazon S3" style="outlineConnect=0;fontColor=#232F3E;gradientColor=#60A337;gradientDirection=north;fillColor=#277116;strokeColor=#ffffff;dashed=0;verticalLabelPosition=bottom;verticalAlign=top;align=center;html=1;fontSize=12;fontStyle=0;aspect=fixed;shape=mxgraph.aws4.resourceIcon;resIcon=mxgraph.aws4.s3;labelBackgroundColor=none;" parent="jZVaUwOg5UY3L9NAnvdq-71" vertex="1">
          <mxGeometry x="298" y="382" width="78" height="78" as="geometry" />
        </mxCell>
        <mxCell id="jZVaUwOg5UY3L9NAnvdq-74" value="Amazon API&lt;br&gt;Gateway&lt;br&gt;" style="outlineConnect=0;fontColor=#232F3E;gradientColor=#945DF2;gradientDirection=north;fillColor=#5A30B5;strokeColor=#ffffff;dashed=0;verticalLabelPosition=bottom;verticalAlign=top;align=center;html=1;fontSize=12;fontStyle=0;aspect=fixed;shape=mxgraph.aws4.resourceIcon;resIcon=mxgraph.aws4.api_gateway;labelBackgroundColor=none;" parent="jZVaUwOg5UY3L9NAnvdq-71" vertex="1">
          <mxGeometry x="87" y="125.99999999999994" width="78" height="78" as="geometry" />
        </mxCell>
        <mxCell id="QSw6mBPrp35lsUMGg7bP-11" value="" style="edgeStyle=orthogonalEdgeStyle;rounded=0;orthogonalLoop=1;jettySize=auto;html=1;strokeColor=#545B64;strokeWidth=2;" parent="jZVaUwOg5UY3L9NAnvdq-71" source="QSw6mBPrp35lsUMGg7bP-5" target="QSw6mBPrp35lsUMGg7bP-8" edge="1">
          <mxGeometry relative="1" as="geometry" />
        </mxCell>
        <mxCell id="QSw6mBPrp35lsUMGg7bP-5" value="CloudFront" style="sketch=0;points=[[0,0,0],[0.25,0,0],[0.5,0,0],[0.75,0,0],[1,0,0],[0,1,0],[0.25,1,0],[0.5,1,0],[0.75,1,0],[1,1,0],[0,0.25,0],[0,0.5,0],[0,0.75,0],[1,0.25,0],[1,0.5,0],[1,0.75,0]];outlineConnect=0;fontColor=#232F3E;gradientColor=#945DF2;gradientDirection=north;fillColor=#5A30B5;strokeColor=#ffffff;dashed=0;verticalLabelPosition=bottom;verticalAlign=top;align=center;html=1;fontSize=12;fontStyle=0;aspect=fixed;shape=mxgraph.aws4.resourceIcon;resIcon=mxgraph.aws4.cloudfront;" parent="jZVaUwOg5UY3L9NAnvdq-71" vertex="1">
          <mxGeometry x="87" y="378" width="78" height="83" as="geometry" />
        </mxCell>
        <mxCell id="jZVaUwOg5UY3L9NAnvdq-101" value="1" style="rounded=1;whiteSpace=wrap;html=1;fillColor=#007CBD;strokeColor=none;fontColor=#FFFFFF;fontStyle=1;fontSize=22;labelBackgroundColor=none;" parent="jZVaUwOg5UY3L9NAnvdq-71" vertex="1">
          <mxGeometry x="106" y="488" width="40" height="38" as="geometry" />
        </mxCell>
        <mxCell id="QSw6mBPrp35lsUMGg7bP-14" value="" style="edgeStyle=orthogonalEdgeStyle;rounded=0;orthogonalLoop=1;jettySize=auto;html=1;strokeColor=#545B64;strokeWidth=2;endArrow=open;endFill=0;exitX=0.5;exitY=1;exitDx=0;exitDy=0;exitPerimeter=0;" parent="jZVaUwOg5UY3L9NAnvdq-71" source="QSw6mBPrp35lsUMGg7bP-4" target="QSw6mBPrp35lsUMGg7bP-12" edge="1">
          <mxGeometry relative="1" as="geometry">
            <Array as="points">
              <mxPoint x="316" y="268" />
              <mxPoint x="316" y="268" />
            </Array>
          </mxGeometry>
        </mxCell>
        <mxCell id="QSw6mBPrp35lsUMGg7bP-17" value="" style="edgeStyle=orthogonalEdgeStyle;rounded=0;orthogonalLoop=1;jettySize=auto;html=1;startArrow=none;strokeColor=#545B64;strokeWidth=2;startFill=0;endArrow=open;endFill=0;entryX=0;entryY=0.5;entryDx=0;entryDy=0;entryPerimeter=0;" parent="jZVaUwOg5UY3L9NAnvdq-71" source="QSw6mBPrp35lsUMGg7bP-4" edge="1">
          <mxGeometry relative="1" as="geometry">
            <Array as="points">
              <mxPoint x="447" y="146" />
              <mxPoint x="447" y="67" />
            </Array>
            <mxPoint x="525" y="67" as="targetPoint" />
          </mxGeometry>
        </mxCell>
        <mxCell id="xazAc66kS2hvIdJBhb0Y-1" value="" style="edgeStyle=orthogonalEdgeStyle;rounded=0;orthogonalLoop=1;jettySize=auto;html=1;entryX=0;entryY=0.25;entryDx=0;entryDy=0;entryPerimeter=0;strokeWidth=2;endArrow=open;endFill=0;strokeColor=#666666;exitX=1;exitY=0.75;exitDx=0;exitDy=0;exitPerimeter=0;" edge="1" parent="jZVaUwOg5UY3L9NAnvdq-71" source="QSw6mBPrp35lsUMGg7bP-4" target="QSw6mBPrp35lsUMGg7bP-18">
          <mxGeometry relative="1" as="geometry">
            <mxPoint x="387" y="198" as="sourcePoint" />
            <Array as="points">
              <mxPoint x="447" y="185" />
              <mxPoint x="447" y="268" />
            </Array>
          </mxGeometry>
        </mxCell>
        <mxCell id="QSw6mBPrp35lsUMGg7bP-4" value="EC2&amp;nbsp; &amp;nbsp; &amp;nbsp; &amp;nbsp; &amp;nbsp;&amp;nbsp;" style="sketch=0;points=[[0,0,0],[0.25,0,0],[0.5,0,0],[0.75,0,0],[1,0,0],[0,1,0],[0.25,1,0],[0.5,1,0],[0.75,1,0],[1,1,0],[0,0.25,0],[0,0.5,0],[0,0.75,0],[1,0.25,0],[1,0.5,0],[1,0.75,0]];outlineConnect=0;fontColor=#232F3E;gradientColor=#F78E04;gradientDirection=north;fillColor=#D05C17;strokeColor=#ffffff;dashed=0;verticalLabelPosition=bottom;verticalAlign=top;align=center;html=1;fontSize=12;fontStyle=0;aspect=fixed;shape=mxgraph.aws4.resourceIcon;resIcon=mxgraph.aws4.ec2;" parent="jZVaUwOg5UY3L9NAnvdq-71" vertex="1">
          <mxGeometry x="277" y="126" width="78" height="78" as="geometry" />
        </mxCell>
        <mxCell id="jZVaUwOg5UY3L9NAnvdq-111" value="" style="edgeStyle=elbowEdgeStyle;rounded=0;orthogonalLoop=1;jettySize=auto;html=1;endArrow=open;endFill=0;strokeColor=#545B64;strokeWidth=2;fontSize=14;" parent="jZVaUwOg5UY3L9NAnvdq-71" source="jZVaUwOg5UY3L9NAnvdq-74" target="QSw6mBPrp35lsUMGg7bP-4" edge="1">
          <mxGeometry relative="1" as="geometry">
            <mxPoint x="346" y="354" as="targetPoint" />
            <Array as="points">
              <mxPoint x="217" y="165" />
              <mxPoint x="247" y="196" />
              <mxPoint x="287" y="165" />
            </Array>
          </mxGeometry>
        </mxCell>
        <mxCell id="-QjtrjUzRDEMRZ5MF8oH-28" value="4" style="rounded=1;whiteSpace=wrap;html=1;fillColor=#007CBD;strokeColor=none;fontColor=#FFFFFF;fontStyle=1;fontSize=22;labelBackgroundColor=none;" parent="jZVaUwOg5UY3L9NAnvdq-71" vertex="1">
          <mxGeometry x="457" y="116" width="40" height="38" as="geometry" />
        </mxCell>
        <mxCell id="QSw6mBPrp35lsUMGg7bP-6" value="RDS(MySQL)" style="sketch=0;points=[[0,0,0],[0.25,0,0],[0.5,0,0],[0.75,0,0],[1,0,0],[0,1,0],[0.25,1,0],[0.5,1,0],[0.75,1,0],[1,1,0],[0,0.25,0],[0,0.5,0],[0,0.75,0],[1,0.25,0],[1,0.5,0],[1,0.75,0]];outlineConnect=0;fontColor=#232F3E;gradientColor=#4D72F3;gradientDirection=north;fillColor=#3334B9;strokeColor=#ffffff;dashed=0;verticalLabelPosition=bottom;verticalAlign=top;align=center;html=1;fontSize=12;fontStyle=0;aspect=fixed;shape=mxgraph.aws4.resourceIcon;resIcon=mxgraph.aws4.rds;" parent="jZVaUwOg5UY3L9NAnvdq-71" vertex="1">
          <mxGeometry x="525" y="7" width="78" height="78" as="geometry" />
        </mxCell>
        <mxCell id="QSw6mBPrp35lsUMGg7bP-8" value="UI bucket" style="rounded=1;align=center;fillColor=#d5e8d4;strokeColor=#82b366;html=1;fontSize=12" parent="jZVaUwOg5UY3L9NAnvdq-71" vertex="1">
          <mxGeometry x="196" y="403" width="80" height="33" as="geometry" />
        </mxCell>
        <mxCell id="QSw6mBPrp35lsUMGg7bP-12" value="upload buket" style="rounded=1;align=center;fillColor=#d5e8d4;strokeColor=#82b366;html=1;fontSize=12" parent="jZVaUwOg5UY3L9NAnvdq-71" vertex="1">
          <mxGeometry x="277" y="326" width="80" height="33" as="geometry" />
        </mxCell>
        <mxCell id="jZVaUwOg5UY3L9NAnvdq-104" value="5" style="rounded=1;whiteSpace=wrap;html=1;fillColor=#007CBD;strokeColor=none;fontColor=#FFFFFF;fontStyle=1;fontSize=22;labelBackgroundColor=none;" parent="jZVaUwOg5UY3L9NAnvdq-71" vertex="1">
          <mxGeometry x="457" y="276" width="40" height="38" as="geometry" />
        </mxCell>
        <mxCell id="QSw6mBPrp35lsUMGg7bP-18" value="ElastiCache(Redis)" style="sketch=0;points=[[0,0,0],[0.25,0,0],[0.5,0,0],[0.75,0,0],[1,0,0],[0,1,0],[0.25,1,0],[0.5,1,0],[0.75,1,0],[1,1,0],[0,0.25,0],[0,0.5,0],[0,0.75,0],[1,0.25,0],[1,0.5,0],[1,0.75,0]];outlineConnect=0;fontColor=#232F3E;gradientColor=#4D72F3;gradientDirection=north;fillColor=#3334B9;strokeColor=#ffffff;dashed=0;verticalLabelPosition=bottom;verticalAlign=top;align=center;html=1;fontSize=12;fontStyle=0;aspect=fixed;shape=mxgraph.aws4.resourceIcon;resIcon=mxgraph.aws4.elasticache;" parent="jZVaUwOg5UY3L9NAnvdq-71" vertex="1">
          <mxGeometry x="524.61" y="248" width="78" height="78" as="geometry" />
        </mxCell>
        <mxCell id="jZVaUwOg5UY3L9NAnvdq-105" value="6" style="rounded=1;whiteSpace=wrap;html=1;fillColor=#007CBD;strokeColor=none;fontColor=#FFFFFF;fontStyle=1;fontSize=22;labelBackgroundColor=none;" parent="jZVaUwOg5UY3L9NAnvdq-71" vertex="1">
          <mxGeometry x="325" y="268" width="40" height="38" as="geometry" />
        </mxCell>
        <mxCell id="jZVaUwOg5UY3L9NAnvdq-102" value="2" style="rounded=1;whiteSpace=wrap;html=1;fillColor=#007CBD;strokeColor=none;fontColor=#FFFFFF;fontStyle=1;fontSize=22;labelBackgroundColor=none;" parent="jZVaUwOg5UY3L9NAnvdq-71" vertex="1">
          <mxGeometry x="106" y="78" width="40" height="38" as="geometry" />
        </mxCell>
        <mxCell id="jZVaUwOg5UY3L9NAnvdq-103" value="3" style="rounded=1;whiteSpace=wrap;html=1;fillColor=#007CBD;strokeColor=none;fontColor=#FFFFFF;fontStyle=1;fontSize=22;labelBackgroundColor=none;" parent="jZVaUwOg5UY3L9NAnvdq-71" vertex="1">
          <mxGeometry x="457" y="17" width="40" height="38" as="geometry" />
        </mxCell>
        <mxCell id="jZVaUwOg5UY3L9NAnvdq-106" value="7" style="rounded=1;whiteSpace=wrap;html=1;fillColor=#007CBD;strokeColor=none;fontColor=#FFFFFF;fontStyle=1;fontSize=22;labelBackgroundColor=none;" parent="jZVaUwOg5UY3L9NAnvdq-71" vertex="1">
          <mxGeometry x="106" y="285" width="40" height="38" as="geometry" />
        </mxCell>
        <mxCell id="xazAc66kS2hvIdJBhb0Y-8" value="" style="group" vertex="1" connectable="0" parent="jZVaUwOg5UY3L9NAnvdq-71">
          <mxGeometry x="512.6134380204156" y="113.86343802041566" width="106.77312395916874" height="119.13656197958434" as="geometry" />
        </mxCell>
        <mxCell id="xazAc66kS2hvIdJBhb0Y-3" value="" style="rounded=1;whiteSpace=wrap;html=1;fillColor=#5AB300;strokeColor=none;glass=0;shadow=0;sketch=0;" vertex="1" parent="xazAc66kS2hvIdJBhb0Y-8">
          <mxGeometry x="10.136561979584371" y="14.136561979584343" width="78" height="75" as="geometry" />
        </mxCell>
        <mxCell id="xazAc66kS2hvIdJBhb0Y-5" value="" style="shape=image;html=1;verticalAlign=top;verticalLabelPosition=bottom;labelBackgroundColor=#ffffff;imageAspect=0;aspect=fixed;image=https://cdn4.iconfinder.com/data/icons/ionicons/512/icon-leaf-128.png;rotation=45;" vertex="1" parent="xazAc66kS2hvIdJBhb0Y-8">
          <mxGeometry x="15.636561979584371" y="15.636561979584343" width="75.5" height="75.5" as="geometry" />
        </mxCell>
        <mxCell id="xazAc66kS2hvIdJBhb0Y-7" value="MongoDB" style="text;html=1;strokeColor=none;fillColor=none;align=center;verticalAlign=middle;whiteSpace=wrap;rounded=0;" vertex="1" parent="xazAc66kS2hvIdJBhb0Y-8">
          <mxGeometry x="19.13656197958437" y="89.13656197958434" width="60" height="30" as="geometry" />
        </mxCell>
        <mxCell id="xazAc66kS2hvIdJBhb0Y-11" value="" style="edgeStyle=orthogonalEdgeStyle;rounded=0;orthogonalLoop=1;jettySize=auto;html=1;startArrow=none;strokeColor=#545B64;strokeWidth=2;startFill=0;endArrow=open;endFill=0;entryX=0.114;entryY=0.844;entryDx=0;entryDy=0;entryPerimeter=0;exitX=1;exitY=0.5;exitDx=0;exitDy=0;exitPerimeter=0;" edge="1" parent="jZVaUwOg5UY3L9NAnvdq-71" source="QSw6mBPrp35lsUMGg7bP-4" target="xazAc66kS2hvIdJBhb0Y-5">
          <mxGeometry relative="1" as="geometry">
            <Array as="points">
              <mxPoint x="527" y="165" />
            </Array>
            <mxPoint x="365" y="156" as="sourcePoint" />
            <mxPoint x="535" y="77" as="targetPoint" />
          </mxGeometry>
        </mxCell>
        <mxCell id="jZVaUwOg5UY3L9NAnvdq-110" style="edgeStyle=elbowEdgeStyle;rounded=0;orthogonalLoop=1;jettySize=auto;html=1;endArrow=open;endFill=0;strokeColor=#545B64;strokeWidth=2;fontSize=14;" parent="1" target="jZVaUwOg5UY3L9NAnvdq-74" edge="1">
          <mxGeometry relative="1" as="geometry">
            <mxPoint x="160" y="278" as="sourcePoint" />
            <mxPoint x="310" y="278" as="targetPoint" />
          </mxGeometry>
        </mxCell>
        <mxCell id="jZVaUwOg5UY3L9NAnvdq-130" style="edgeStyle=elbowEdgeStyle;rounded=0;orthogonalLoop=1;jettySize=auto;html=1;endArrow=open;endFill=0;strokeColor=#545B64;strokeWidth=2;fontSize=14;entryX=0;entryY=0.5;entryDx=0;entryDy=0;entryPerimeter=0;" parent="1" target="QSw6mBPrp35lsUMGg7bP-5" edge="1">
          <mxGeometry relative="1" as="geometry">
            <mxPoint x="160" y="533" as="sourcePoint" />
            <mxPoint x="390" y="683.5" as="targetPoint" />
            <Array as="points">
              <mxPoint x="270" y="491" />
              <mxPoint x="330" y="593" />
            </Array>
          </mxGeometry>
        </mxCell>
        <mxCell id="-QjtrjUzRDEMRZ5MF8oH-36" value="1" style="rounded=1;whiteSpace=wrap;html=1;fillColor=#007CBD;strokeColor=none;fontColor=#FFFFFF;fontStyle=1;fontSize=22;labelBackgroundColor=none;" parent="1" vertex="1">
          <mxGeometry x="45.5" y="683" width="34" height="27" as="geometry" />
        </mxCell>
        <mxCell id="-QjtrjUzRDEMRZ5MF8oH-37" value="2" style="rounded=1;whiteSpace=wrap;html=1;fillColor=#007CBD;strokeColor=none;fontColor=#FFFFFF;fontStyle=1;fontSize=22;labelBackgroundColor=none;" parent="1" vertex="1">
          <mxGeometry x="45" y="719" width="34" height="27" as="geometry" />
        </mxCell>
        <mxCell id="-QjtrjUzRDEMRZ5MF8oH-40" value="5" style="rounded=1;whiteSpace=wrap;html=1;fillColor=#007CBD;strokeColor=none;fontColor=#FFFFFF;fontStyle=1;fontSize=22;labelBackgroundColor=none;" parent="1" vertex="1">
          <mxGeometry x="453.5" y="681" width="34" height="27" as="geometry" />
        </mxCell>
        <mxCell id="-QjtrjUzRDEMRZ5MF8oH-41" value="6" style="rounded=1;whiteSpace=wrap;html=1;fillColor=#007CBD;strokeColor=none;fontColor=#FFFFFF;fontStyle=1;fontSize=22;labelBackgroundColor=none;" parent="1" vertex="1">
          <mxGeometry x="453.5" y="719" width="34" height="27" as="geometry" />
        </mxCell>
        <mxCell id="-QjtrjUzRDEMRZ5MF8oH-42" value="7" style="rounded=1;whiteSpace=wrap;html=1;fillColor=#007CBD;strokeColor=none;fontColor=#FFFFFF;fontStyle=1;fontSize=22;labelBackgroundColor=none;" parent="1" vertex="1">
          <mxGeometry x="453.5" y="756" width="34" height="27" as="geometry" />
        </mxCell>
        <mxCell id="-QjtrjUzRDEMRZ5MF8oH-47" value="RUN-TRIP AWS Architecture" style="text;html=1;resizable=0;points=[];autosize=1;align=left;verticalAlign=top;spacingTop=-4;fontSize=30;fontColor=#000000;fontStyle=1;labelBackgroundColor=none;" parent="1" vertex="1">
          <mxGeometry x="36.5" y="26.5" width="420" height="40" as="geometry" />
        </mxCell>
        <mxCell id="-QjtrjUzRDEMRZ5MF8oH-48" value="version. 2021.12.22" style="text;html=1;resizable=0;points=[];autosize=1;align=left;verticalAlign=top;spacingTop=-4;fontSize=16;fontColor=#000000;labelBackgroundColor=none;" parent="1" vertex="1">
          <mxGeometry x="36.5" y="69.5" width="160" height="20" as="geometry" />
        </mxCell>
        <mxCell id="SCVMTBWpLvtzJIhz15lM-1" value="" style="line;strokeWidth=2;html=1;fontSize=14;labelBackgroundColor=none;" parent="1" vertex="1">
          <mxGeometry x="32.5" y="94.5" width="777.5" height="10" as="geometry" />
        </mxCell>
        <mxCell id="SCVMTBWpLvtzJIhz15lM-7" value="S3 UI bucket 에 업로드한 웹페이지 콘텐츠 제공" style="text;html=1;align=left;verticalAlign=middle;spacingTop=-4;fontSize=14;labelBackgroundColor=none;whiteSpace=wrap;" parent="1" vertex="1">
          <mxGeometry x="89" y="681" width="312" height="38" as="geometry" />
        </mxCell>
        <mxCell id="QSw6mBPrp35lsUMGg7bP-15" value="" style="edgeStyle=orthogonalEdgeStyle;rounded=0;orthogonalLoop=1;jettySize=auto;html=1;entryX=0;entryY=0.25;entryDx=0;entryDy=0;startArrow=open;strokeWidth=2;strokeColor=#545B64;endArrow=open;endFill=0;startFill=0;" parent="1" target="QSw6mBPrp35lsUMGg7bP-12" edge="1">
          <mxGeometry relative="1" as="geometry">
            <mxPoint x="160" y="447" as="sourcePoint" />
          </mxGeometry>
        </mxCell>
        <mxCell id="jZVaUwOg5UY3L9NAnvdq-88" value="Users&lt;br&gt;" style="outlineConnect=0;fontColor=#232F3E;gradientColor=none;fillColor=#232F3E;strokeColor=none;dashed=0;verticalLabelPosition=bottom;verticalAlign=top;align=center;html=1;fontSize=12;fontStyle=0;aspect=fixed;pointerEvents=1;shape=mxgraph.aws4.users;labelBackgroundColor=none;" parent="1" vertex="1">
          <mxGeometry x="47.5" y="225.9999999999999" width="78" height="78" as="geometry" />
        </mxCell>
        <mxCell id="jZVaUwOg5UY3L9NAnvdq-65" value="Mobile / Web" style="outlineConnect=0;fontColor=#232F3E;gradientColor=none;strokeColor=none;fillColor=#277116;dashed=0;verticalLabelPosition=bottom;verticalAlign=top;align=center;html=1;fontSize=12;fontStyle=0;shape=mxgraph.aws4.mobile_client;labelBackgroundColor=none;" parent="1" vertex="1">
          <mxGeometry x="66.94" y="345" width="39.12" height="63" as="geometry" />
        </mxCell>
        <mxCell id="QSw6mBPrp35lsUMGg7bP-22" value="웹페이지의 API 요청을 처리" style="text;html=1;align=left;verticalAlign=middle;spacingTop=-4;fontSize=14;labelBackgroundColor=none;whiteSpace=wrap;" parent="1" vertex="1">
          <mxGeometry x="89" y="719" width="290" height="32" as="geometry" />
        </mxCell>
        <mxCell id="QSw6mBPrp35lsUMGg7bP-24" value="기본적인 회원, 게시글, history 정보 저장" style="text;html=1;align=left;verticalAlign=middle;spacingTop=-4;fontSize=14;labelBackgroundColor=none;whiteSpace=wrap;" parent="1" vertex="1">
          <mxGeometry x="89" y="756" width="300" height="30" as="geometry" />
        </mxCell>
        <mxCell id="QSw6mBPrp35lsUMGg7bP-25" value="로그인 session 정보 저장" style="text;html=1;align=left;verticalAlign=middle;spacingTop=-4;fontSize=14;labelBackgroundColor=none;whiteSpace=wrap;" parent="1" vertex="1">
          <mxGeometry x="497" y="681" width="300" height="33" as="geometry" />
        </mxCell>
        <mxCell id="QSw6mBPrp35lsUMGg7bP-26" value="업로드시 pre-signed URL 요청 및 삭제 요청" style="text;html=1;align=left;verticalAlign=middle;spacingTop=-4;fontSize=14;labelBackgroundColor=none;whiteSpace=wrap;" parent="1" vertex="1">
          <mxGeometry x="497" y="718" width="292" height="35" as="geometry" />
        </mxCell>
        <mxCell id="QSw6mBPrp35lsUMGg7bP-27" value="pre-signed URL 로 업로드 및 이미지 다운로드" style="text;html=1;align=left;verticalAlign=middle;spacingTop=-4;fontSize=14;labelBackgroundColor=none;whiteSpace=wrap;" parent="1" vertex="1">
          <mxGeometry x="497" y="755" width="300" height="31" as="geometry" />
        </mxCell>
        <mxCell id="-QjtrjUzRDEMRZ5MF8oH-38" value="3" style="rounded=1;whiteSpace=wrap;html=1;fillColor=#007CBD;strokeColor=none;fontColor=#FFFFFF;fontStyle=1;fontSize=22;labelBackgroundColor=none;" parent="1" vertex="1">
          <mxGeometry x="45" y="755" width="34" height="27" as="geometry" />
        </mxCell>
        <mxCell id="-QjtrjUzRDEMRZ5MF8oH-39" value="4" style="rounded=1;whiteSpace=wrap;html=1;fillColor=#007CBD;strokeColor=none;fontColor=#FFFFFF;fontStyle=1;fontSize=22;labelBackgroundColor=none;" parent="1" vertex="1">
          <mxGeometry x="45.5" y="790.5" width="34" height="27" as="geometry" />
        </mxCell>
        <mxCell id="xazAc66kS2hvIdJBhb0Y-14" value="목록 조회용 간략 게시글 정보 caching" style="text;html=1;align=left;verticalAlign=middle;spacingTop=-4;fontSize=14;labelBackgroundColor=none;whiteSpace=wrap;" vertex="1" parent="1">
          <mxGeometry x="89" y="790.5" width="310" height="30.5" as="geometry" />
        </mxCell>
      </root>
    </mxGraphModel>
  </diagram>
</mxfile>
